<svg xmlns="http://www.w3.org/2000/svg" xmlns:xlink="http://www.w3.org/1999/xlink" width="318" height="100" viewBox="0 0 318 100"><defs><style>.a{fill:url(#a);}.b,.d{fill:#fff;}.b{font-size:22px;font-family:Roboto-Bold, Roboto;font-weight:700;}.c{fill:#f1556a;}.e{fill:#f7b402;}.f{fill:#662d91;}.g{filter:url(#b);}</style><linearGradient id="a" x1="0.5" x2="0.5" y2="2.109" gradientUnits="objectBoundingBox"><stop offset="0" stop-color="#ff3d57"/><stop offset="1" stop-color="#801f2c"/></linearGradient><filter id="b" x="0" y="0" width="318" height="100" filterUnits="userSpaceOnUse"><feOffset dy="13" input="SourceAlpha"/><feGaussianBlur stdDeviation="7" result="c"/><feFlood flood-opacity="0.11"/><feComposite operator="in" in2="c"/><feComposite in="SourceGraphic"/></filter></defs><g transform="translate(-29 -192)"><g class="g" transform="matrix(1, 0, 0, 1, 29, 192)"><rect class="a" width="276" height="58" rx="6" transform="translate(21 8)"/></g><g transform="translate(16)"><text class="b" transform="translate(193.761 237)"><tspan x="-87.731" y="0">GO FOR MARCHA</tspan></text><rect class="c" width="34" height="34" transform="translate(62 212)"/><g transform="translate(5095.76 152.261)"><path class="d" d="M287.116,408.845v33.844H253.272V408.845h33.844m.339-.339H252.933v34.522h34.522V408.505Z" transform="translate(-5286.693 -348.766)"/><path class="e" d="M393.977,564.064v3.942h2.292v-6.493a1.146,1.146,0,0,0-1.146-1.146h-6.493v2.292h3.506a8.758,8.758,0,0,1-7.708,4.583v2.292A11.042,11.042,0,0,0,393.977,564.064Z" transform="translate(-5400.927 -480.693)"/><path class="f" d="M296.523,455.272v-3.942h-2.292v6.493a1.146,1.146,0,0,0,1.146,1.146h6.493v-2.292h-3.506a8.758,8.758,0,0,1,7.708-4.583V449.8A11.042,11.042,0,0,0,296.523,455.272Z" transform="translate(-5322.57 -384.643)"/><path class="d" d="M298.814,563.714a4.583,4.583,0,1,0-4.583-4.583A4.583,4.583,0,0,0,298.814,563.714Zm0-6.875a2.292,2.292,0,1,1-2.292,2.292A2.292,2.292,0,0,1,298.814,556.84Z" transform="translate(-5322.57 -475.638)"/><path class="d" d="M416.49,466.17v-6.493a1.146,1.146,0,0,0-1.146-1.146h-6.493a1.146,1.146,0,0,0-1.146,1.146v6.493a1.146,1.146,0,0,0,1.146,1.146h6.493A1.146,1.146,0,0,0,416.49,466.17ZM410,465.024v-4.2h4.2v4.2Z" transform="translate(-5421.148 -392.225)"/></g></g></g></svg>